<svg xmlns="http://www.w3.org/2000/svg" xmlns:xlink="http://www.w3.org/1999/xlink" viewBox="0 0 400 300" width="406" height="306" class="illustration styles_illustrationTablet__1DWOa"><defs><linearGradient id="linear-gradient" x1="228.88" y1="234.38" x2="159.93" y2="183.91" gradientUnits="userSpaceOnUse"><stop offset="0" stop-color="#fff" stop-opacity="0"></stop><stop offset="0.99" stop-color="gray"></stop></linearGradient><linearGradient id="linear-gradient-2" x1="-1851.95" y1="281.77" x2="-1814.8" y2="250.69" gradientTransform="matrix(-1, 0, 0, 1, -1640.47, 0)" xlink:href="#linear-gradient"></linearGradient><linearGradient id="linear-gradient-3" x1="-1754.16" y1="203.11" x2="-1717.15" y2="172.15" gradientTransform="matrix(-1, 0, 0, 1, -1640.47, 0)" xlink:href="#linear-gradient"></linearGradient></defs><title>PP</title><g style="isolation: isolate;"><g id="Layer_2" data-name="Layer 2"><path d="M193.22,287.77,13.49,181.55c-5.72-3.21-10.63-8.49-5.05-11.94l180.37-104c2.71-1.68,6.82-2.78,9.57-1.18L387,174c5.72,3.32,6.75,12.6,1,15.93L216.91,287.6A23.9,23.9,0,0,1,193.22,287.77Z" fill="#a2c609"></path><polyline points="155.99 212.07 220.47 254.05 261.61 227.29 194.42 197.16" opacity="0.91" fill="url(#linear-gradient)" style="mix-blend-mode: multiply;"></polyline><path d="M184.48,249.17c-.32,0-24.31-7.4-24.63-7.37L145.74,252.4l60.75,37.2,24.79-16.87Z" opacity="0.91" fill="url(#linear-gradient-2)" style="mix-blend-mode: multiply;"></path><polyline points="48.54 173.44 108.28 211.37 133.07 194.5 67.85 160.95" opacity="0.91" fill="url(#linear-gradient-3)" style="mix-blend-mode: multiply;"></polyline><path d="M202,161.1l12.46,75a1.68,1.68,0,0,0,3.32-.55l-12.46-75A1.68,1.68,0,0,0,202,161.1Z" fill="#c24327"></path><path d="M183.53,141.23,156,212.07a1.68,1.68,0,0,0,3.14,1.22l27.54-70.84A1.68,1.68,0,0,0,183.53,141.23Z" fill="#c24327"></path><path d="M189.74,121.23l1.31,76a1.68,1.68,0,0,0,3.37-.06l-1.31-76A1.68,1.68,0,0,0,189.74,121.23Z" fill="#c24327"></path><ellipse cx="192.41" cy="152.69" rx="30.75" ry="13.94" fill="#13897e"></ellipse><path d="M197.71,122.63V38.83a5.33,5.33,0,0,1,8-4.59l106.14,62.5a5.33,5.33,0,0,1,2.62,4.59v84.9a5.33,5.33,0,0,1-8.07,4.57L200.3,127.19A5.33,5.33,0,0,1,197.71,122.63Z" fill="#b095fe"></path><path d="M202.55,91.92c-.08.17-.5,1.75-.83,1.42s-2.08.42-2.08.42l-4.88-6.21.65-2h4.4" fill="#68e1fd"></path><path d="M179,65.16l-.46-1.61-5.14-2.8V52c0-.17,5,2.92,5,2.92l.23-.49a11.74,11.74,0,0,1,1.51-3.78L176.45,44,181,40.48l3.43,6.88,0,0a7.82,7.82,0,0,1,3.79.07V40.84l6.57,3.64v6.91a29.07,29.07,0,0,1,3.51,4l4-2.53,4.47,8.51-3.55,2.82.3,1.43a39,39,0,0,1,1.1,4.6l5.27,2.9v8.71l-5-3a11.29,11.29,0,0,1-1.62,4.47l3.76,6.38-4.77,3.61-3.35-6.57h-4.16v6.57l-6.27-3.82V83.06a25.9,25.9,0,0,1-3.78-4.69L181,81l-4.55-8.69,3.78-2.79-.37-1.3C179.48,67.15,179.19,66.15,179,65.16Z" fill="#68e1fd"></path><polyline points="167.05 55.64 172.86 52.13 174.31 54.27 172.06 58.98" fill="#68e1fd"></polyline><polyline points="174.65 84.6 178.95 82.81 178.95 80.21" fill="#68e1fd"></polyline><polygon points="188.47 96.98 194.78 93.34 193.18 88.56 187.5 90.23 188.47 96.98" fill="#68e1fd"></polygon><polygon points="181.05 40.48 174.73 44.12 178.2 51.02 181.99 51.09 182.86 44.12 181.05 40.48" fill="#68e1fd"></polygon><ellipse cx="184.92" cy="70.61" rx="2.85" ry="4.9" transform="translate(-13.01 72.52) rotate(-21.45)" fill="#68e1fd"></ellipse><polygon points="194.87 44.48 188.56 48.12 181.99 44.48 188.3 40.84 194.87 44.48" fill="#68e1fd"></polygon><polygon points="196.03 56.54 202.34 52.9 206.81 61.41 200.5 65.05 196.03 56.54" fill="#68e1fd"></polygon><polygon points="207.06 89.73 200.75 93.38 195.98 96.98 202.3 93.34 207.06 89.73" fill="#68e1fd"></polygon><path d="M202.55,91.92c-.08.17-.5,1.75-.83,1.42s-2.08.42-2.08.42l-4.88-6.21.65-2h4.4" fill="#053855" opacity="0.44"></path><path d="M179,65.16l-.46-1.61-5.14-2.8V52c0-.17,5,2.92,5,2.92l.23-.49a11.74,11.74,0,0,1,1.51-3.78L176.45,44,181,40.48l3.43,6.88,0,0a7.82,7.82,0,0,1,3.79.07V40.84l6.57,3.64v6.91a29.07,29.07,0,0,1,3.51,4l4-2.53,4.47,8.51-3.55,2.82.3,1.43a39,39,0,0,1,1.1,4.6l5.27,2.9v8.71l-5-3a11.29,11.29,0,0,1-1.62,4.47l3.76,6.38-4.77,3.61-3.35-6.57h-4.16v6.57l-6.27-3.82V83.06a25.9,25.9,0,0,1-3.78-4.69L181,81l-4.55-8.69,3.78-2.79-.37-1.3C179.48,67.15,179.19,66.15,179,65.16Z" fill="#68e1fd"></path><polyline points="167.05 55.64 172.86 52.13 174.31 54.27 172.06 58.98" fill="#053855" opacity="0.44"></polyline><polyline points="174.65 84.6 178.95 82.81 178.95 80.21" fill="#68e1fd"></polyline><polygon points="188.47 96.98 194.78 93.34 193.18 88.56 187.5 90.23 188.47 96.98" fill="#68e1fd"></polygon><polygon points="181.05 40.48 174.73 44.12 178.2 51.02 181.99 51.09 182.86 44.12 181.05 40.48" fill="#68e1fd"></polygon><ellipse cx="184.92" cy="70.61" rx="2.85" ry="4.9" transform="translate(-13.01 72.52) rotate(-21.45)" fill="#68e1fd"></ellipse><polygon points="196.03 56.54 202.34 52.9 206.81 61.41 200.5 65.05 196.03 56.54" fill="#68e1fd"></polygon><polygon points="207.06 89.73 200.75 93.38 195.98 96.98 202.3 93.34 207.06 89.73" fill="#68e1fd"></polygon><path d="M179,65.16l-.46-1.61-5.14-2.8V52c0-.17,5,2.92,5,2.92l.23-.49a11.74,11.74,0,0,1,1.51-3.78L176.45,44,181,40.48l3.43,6.88,0,0a7.82,7.82,0,0,1,3.79.07V40.84l6.57,3.64v6.91a29.07,29.07,0,0,1,3.51,4l4-2.53,4.47,8.51-3.55,2.82.3,1.43a39,39,0,0,1,1.1,4.6l5.27,2.9v8.71l-5-3a11.29,11.29,0,0,1-1.62,4.47l3.76,6.38-4.77,3.61-3.35-6.57h-4.16v6.57l-6.27-3.82V83.06a25.9,25.9,0,0,1-3.78-4.69L181,81l-4.55-8.69,3.78-2.79-.37-1.3C179.48,67.15,179.19,66.15,179,65.16Z" fill="#053855" opacity="0.44"></path><polyline points="174.65 84.6 178.95 82.81 178.95 80.21" fill="#053855" opacity="0.1"></polyline><polygon points="188.47 96.98 194.78 93.34 193.18 88.56 187.5 90.23 188.47 96.98" fill="#053855" opacity="0.1"></polygon><ellipse cx="184.92" cy="70.61" rx="2.85" ry="4.9" transform="translate(-13.01 72.52) rotate(-21.45)" fill="#053855" opacity="0.1"></ellipse><polygon points="196.03 56.54 202.34 52.9 206.81 61.41 200.5 65.05 196.03 56.54" fill="#053855" opacity="0.1"></polygon><polygon points="207.06 89.73 200.75 93.38 195.98 96.98 202.3 93.34 207.06 89.73" fill="#053855" opacity="0.1"></polygon><polyline points="174.65 84.6 178.95 82.81 178.95 80.21" fill="#053855" opacity="0.1"></polyline><polygon points="188.47 96.98 194.78 93.34 193.18 88.56 187.5 90.23 188.47 96.98" fill="#053855" opacity="0.44"></polygon><path d="M172.64,68.8l-.46-1.61L167,64.39V55.64c0-.17,5,2.92,5,2.92l.23-.49a11.74,11.74,0,0,1,1.51-3.78l-3.62-6.68,4.59-3.49L178.17,51l0,0a7.82,7.82,0,0,1,3.79.07V44.48l6.57,3.64V55a29.07,29.07,0,0,1,3.51,4l4-2.53,4.47,8.51L197,67.87l.3,1.43a39,39,0,0,1,1.1,4.6l5.27,2.9v8.71l-5-3A11.29,11.29,0,0,1,197,87l3.76,6.38L196,97l-3.35-6.57h-4.16V97l-6.27-3.82V86.7A25.9,25.9,0,0,1,178.42,82l-3.77,2.58L170.1,75.9l3.78-2.79-.37-1.3C173.17,70.79,172.88,69.79,172.64,68.8Z" fill="#68e1fd"></path><ellipse cx="184.92" cy="70.61" rx="2.85" ry="4.9" transform="translate(-13.01 72.52) rotate(-21.45)" fill="#053855" opacity="0.44"></ellipse><polygon points="207.06 89.73 200.75 93.38 195.98 96.98 202.3 93.34 207.06 89.73" fill="#053855" opacity="0.44"></polygon><polygon points="194.87 44.48 188.56 48.12 181.99 44.48 188.3 40.84 194.87 44.48" fill="#68e1fd"></polygon><polygon points="194.87 44.46 188.57 48.12 181.99 44.5 188.29 40.84 194.87 44.46" fill="#053855" opacity="0.44"></polygon><polygon points="209.94 73.16 203.62 76.8 203.62 85.52 209.94 81.88 209.94 73.16" fill="#68e1fd"></polygon><polygon points="209.94 73.16 203.62 76.8 203.62 85.52 209.94 81.88 209.94 73.16" fill="#053855" opacity="0.44"></polygon><path d="M262.86,118.18V53a3.62,3.62,0,0,1,5.45-3.12L351.15,98.7a8.78,8.78,0,0,1,4.33,7.57v65.79a3.62,3.62,0,0,1-5.48,3.1l-83.06-49.78A8.4,8.4,0,0,1,262.86,118.18Z" fill="#68e1fd"></path><ellipse cx="192.41" cy="149.09" rx="30.75" ry="13.94" fill="#16a79e"></ellipse><polyline points="164.98 144.41 164.98 145.32 165.44 145.88" fill="#adcee1"></polyline><path d="M183.16,133.4,165.5,144.34a1.09,1.09,0,0,0,0,1.88l26.8,15.16a2.45,2.45,0,0,0,2.45,0L212.38,151c1.28-1,1.18-3,0-3.11l-26.65-14.57A2.49,2.49,0,0,0,183.16,133.4Z" fill="#88d3d8"></path><path d="M183.16,132.64,165.5,143.59a1.09,1.09,0,0,0,0,1.88l26.8,15.16a2.45,2.45,0,0,0,2.45,0l17.58-10.34a1.36,1.36,0,0,0,0-2.36L185.72,132.6A2.49,2.49,0,0,0,183.16,132.64Z" fill="#fff"></path><path d="M183.89,131.15s7.33-23.67,7.29-23.67.23-1.05,1.54-.46l28.15,16.57s1.36.55,1.1,1.82-7.17,23.17-7.17,23.17a1.19,1.19,0,0,1-1.33.46c-.86-.27-28.92-16.57-28.92-16.57A1.08,1.08,0,0,1,183.89,131.15Z" fill="#053855"></path><polygon points="191.64 109.19 220.47 126 214.49 146.07 185.29 129.77 191.64 109.19" fill="#68e1fd"></polygon><path d="M182.08,135.15l-6.46,4a.78.78,0,0,0,0,1.34l23.18,13.21a2.28,2.28,0,0,0,2.28,0c1.49-.87,4.06-2.43,5.63-3.4a1,1,0,0,0,0-1.63l-23.33-13.56A1.26,1.26,0,0,0,182.08,135.15Z" fill="#68e1fd"></path><path d="M182.43,146.07l8.1,4.55a.81.81,0,0,1,0,1.4l-4.76,2.79a1.08,1.08,0,0,1-1.08,0l-8.29-4.72a.68.68,0,0,1,0-1.18l5-2.85A1.08,1.08,0,0,1,182.43,146.07Z" fill="#68e1fd"></path><path d="M182.08,135.15l-6.46,4a.78.78,0,0,0,0,1.34l23.18,13.21a2.28,2.28,0,0,0,2.28,0c1.49-.87,4.06-2.43,5.63-3.4a1,1,0,0,0,0-1.63l-23.33-13.56A1.26,1.26,0,0,0,182.08,135.15Z" fill="#053855" opacity="0.1"></path><path d="M182.43,146.07l8.1,4.55a.81.81,0,0,1,0,1.4l-4.76,2.79a1.08,1.08,0,0,1-1.08,0l-8.29-4.72a.68.68,0,0,1,0-1.18l5-2.85A1.08,1.08,0,0,1,182.43,146.07Z" fill="#053855" opacity="0.1"></path><path d="M143.85,157.91s3.13,4.56,3.64,3.62,1.68-8,1.68-8l-6.94-2.63" fill="#eead97"></path><path d="M172.12,248a1,1,0,0,0,1,.94c1,.08,9.91-3.78,12.1,1.45a1.49,1.49,0,0,1-.59,1.81,35.49,35.49,0,0,1-14.74,5.36,8.3,8.3,0,0,1-5.31-.67L165,247Z" fill="#c24327"></path><path d="M150.46,243.46s8.38-5.47,9.85-2c1.13,2.68-8.89,10.48-12.58,11.08s-4.19-3.26-4.19-3.26l.12-6.35" fill="#c24327"></path><path d="M166.87,163.86s8.4,18.09,8.25,83.42c0,0-1.71,4.51-13.84,1.41l-4.92-58.35-2.13,53.83s-5.7,4.23-14.56-.85c0,0,2-72,6.83-85" fill="#68e1fd"></path><path d="M146.1,160.56c-2.1-8.89-6.43-31.87-1.79-35.37,4-3,13.46.26,20.65,5.12,5.9,4,3.49,27.19,2.47,35.25C159.61,166.53,152.32,165.17,146.1,160.56Z" fill="#c24327"></path><path d="M163.74,112.21s.2,11.81-3.09,12.1A6.07,6.07,0,0,1,154.2,121" fill="#eead97"></path><path d="M159,122.83v5.62s-3,1.16-7.23-1.65v-4.58" fill="#eead97"></path><path d="M163.14,114.39s4-4.17,1.39-7.72S159,105,159,105s-.62-1.54-3.71-1.85-4.32,2.78-5.56,3.55-3.24,3-3.4,4.92,2.63,12.38,5.87,13.15S159.59,126.75,163.14,114.39Z" fill="#c24327"></path><path d="M146.3,124.34s-7-.12-13.74,8.82,10.77,26.9,10.94,26,2.8-8.89,2.8-8.89-7.66-6.58-6.36-8.5,6.36-2.85,6.36-2.85" fill="#c24327"></path><path d="M191.56,142.69s6.55-1,7.39-2.18.4-4.25-.08-5.09-3.05.58-3.05.58,0-.83-1.12-.81-3.07,1.93-3.07,1.93l-6.86,4,.54,6.42Z" fill="#eead97"></path><path d="M166.3,131.76s7.34,11.57,7.47,11.92,10.91-4.75,10.91-4.75,2.94.78,5.05,6.37c0,0-9.19,12.51-22.46,10-6.33-1.22-9.46-12.09-9.46-12.09" fill="#c24327"></path><path d="M79.71,129.41a3.05,3.05,0,0,0-.53-1.14,6.8,6.8,0,0,0-1.67-1.45c-8.47-5.73-20.18-7.31-29.13-1.71-2,1.28-5.08,4.18-3.87,6.91.7,1.59,2.83,2.51,4.3,3.16,4.8,2.11,10.16,3.12,15.31,4,1.9.32,3.81.64,5.73.82a7.91,7.91,0,0,0,7-3C78.17,135.32,80.31,131.89,79.71,129.41Z" fill="#754c24"></path><path d="M44.27,130.78s7.72,7,21.06,6,14.38-7.34,14.38-7.34-3.45,44.21-5.28,45-8.64,4-11.92,4.29-13.69-3.92-13.95-5.07S44.27,130.78,44.27,130.78Z" fill="#68e1fd"></path><path d="M46.71,66.35c-.41-.83-1.67-.1-1.26.73,9.13,18.4,10.91,39.12,12.55,59.24.07.92,1.53.93,1.46,0C57.79,105.93,56,85,46.71,66.35Z" fill="#007f68"></path><path d="M45.54,66.52s2.55,9.55-.08,14.32-4.81,5.73-1.66,11.69,11.55,6.73,12.12,11.28S51.88,74.63,45.54,66.52Z" fill="#007f68"></path><path d="M74.73,83.76a120.05,120.05,0,0,0-11.58,47c0,1.13,1.73,1.13,1.78,0A117.87,117.87,0,0,1,76.27,84.65C76.75,83.63,75.22,82.74,74.73,83.76Z" fill="#007f68"></path><path d="M76,88.42c0-1-.21-2.84-.11-4.53q-.5.33-1,.64c-3.47,8.43-8.64,28.23-10.2,34.3,2.11-4.54,10.75-5.16,13.28-11.69a11.92,11.92,0,0,0,.15-8.61A31.77,31.77,0,0,1,76,88.42Z" fill="#007f68"></path><path d="M344.69,127.21c1.87,10.38-2.78,19.46-10.39,20.28s-15.3-6.94-17.18-17.32,2.78-19.46,10.39-20.28S342.82,116.83,344.69,127.21Z" fill="#f4f4f4"></path><path d="M335.63,135.7a5.36,5.36,0,0,1-.66,2.55,2.91,2.91,0,0,1-1.77,1.38,4.3,4.3,0,0,1-2.31-.17l-.09,2.75c0,.8-.52,1-1,.75a1.49,1.49,0,0,1-.72-1.4l.09-2.84a8.29,8.29,0,0,1-3-2.87,8.83,8.83,0,0,1-1.34-4.58l3,1.16a4.94,4.94,0,0,0,.51,2,3.61,3.61,0,0,0,.85,1.12l.17-5.42a25.65,25.65,0,0,1-2.31-2,7.88,7.88,0,0,1-1.48-2.32,7.6,7.6,0,0,1-.54-3.3,4.86,4.86,0,0,1,.73-2.62,2.91,2.91,0,0,1,1.83-1.22,4.58,4.58,0,0,1,2.15.18l.12-3.52c0-.8.53-1,1-.75a1.5,1.5,0,0,1,.72,1.4l-.11,3.58a7.6,7.6,0,0,1,2.81,2.69,8.73,8.73,0,0,1,1.28,4.33l-3.08-1.18a4.67,4.67,0,0,0-.49-1.77,3.43,3.43,0,0,0-.63-.85l-.17,5.26a27.24,27.24,0,0,1,2.32,2.1,8,8,0,0,1,1.5,2.33A7.65,7.65,0,0,1,335.63,135.7Zm-3.66.48a2.08,2.08,0,0,0,.59-1.57,3.34,3.34,0,0,0-.47-1.85,6.34,6.34,0,0,0-.94-1.15l-.16,4.8a1.23,1.23,0,0,0,1-.23m-3.33-10.88a6.68,6.68,0,0,0,1,1.21l.15-4.64a1.29,1.29,0,0,0-1,.17,1.8,1.8,0,0,0-.56,1.45,3.32,3.32,0,0,0,.44,1.81" fill="#8b54ba"></path><path d="M278.22,72v46.15c0,3.86,6,3.87,6,0V72c0-3.86-6-3.87-6,0Z" fill="#fff"></path><path d="M287.58,86.5v37.32c0,3.86,6,3.87,6,0V86.5c0-3.86-6-3.87-6,0Z" fill="#fff"></path><path d="M297.28,97.07V130c0,3.86,6,3.87,6,0V97.07c0-3.86-6-3.87-6,0Z" fill="#fff"></path><path d="M278.22,79.89v38.3c0,3.86,6,3.87,6,0V84C282.2,82.69,280.18,81.33,278.22,79.89Z" fill="#a2c609"></path><path d="M287.58,92.57v31.25c0,3.86,6,3.87,6,0V97.1A57.44,57.44,0,0,1,287.58,92.57Z" fill="#ff9f9f"></path><path d="M297.28,108v22c0,3.86,6,3.87,6,0V111.61A61.29,61.29,0,0,0,297.28,108Z" fill="#8b54ba"></path><ellipse cx="232.94" cy="106.87" rx="13.55" ry="22.09" transform="translate(-17.39 51.94) rotate(-12.27)" fill="#fff"></ellipse><path d="M232.94,108.29l-9.71-19.91s6.83-8.92,16.72,2.27Z" fill="#8b54ba"></path><path d="M232.94,108.29l14,4.62s1.56-12.4-7-22.25Z" fill="#ff9f9f"></path><polygon points="247.79 148.2 255.87 143.16 262.46 151.32 274.03 145.86 285.28 159.23 300.28 155.87 300.28 178.74 247.79 148.2" fill="#8b54ba"></polygon><path d="M213.1,52.62l27.54,16.22a1.13,1.13,0,0,0,1.14-1.94L214.23,50.68a1.13,1.13,0,0,0-1.14,1.94Z" fill="#fff"></path><path d="M212.48,58.28,240,74.5a1.13,1.13,0,0,0,1.14-1.94L213.62,56.34a1.13,1.13,0,0,0-1.14,1.94Z" fill="#fff"></path><path d="M212.48,64,240,80.24a1.13,1.13,0,0,0,1.14-1.94L213.62,62.08A1.13,1.13,0,0,0,212.48,64Z" fill="#fff"></path><path d="M306.25,131.7l-30.66-18.05c-.1-.06-.19-.09-.29-.13v6.93l30.27,17.82a3.26,3.26,0,0,0,.68.3Z" fill="#053855"></path></g></g></svg>