<svg xmlns="http://www.w3.org/2000/svg" xmlns:xlink="http://www.w3.org/1999/xlink" viewBox="0 0 400 300" width="406" height="306" class="illustration styles_illustrationTablet__1DWOa"><defs><linearGradient id="linear-gradient" x1="161.25" y1="199.76" x2="133.04" y2="221.32" gradientUnits="userSpaceOnUse"><stop offset="0" stop-color="#d4a397"></stop><stop offset="1" stop-color="#fff"></stop></linearGradient><linearGradient id="linear-gradient-2" x1="200.12" y1="241.72" x2="184" y2="262.81" xlink:href="#linear-gradient"></linearGradient><linearGradient id="linear-gradient-3" x1="122.76" y1="191.94" x2="94.56" y2="213.51" xlink:href="#linear-gradient"></linearGradient><linearGradient id="linear-gradient-4" x1="377.74" y1="166.14" x2="294.32" y2="211.09" xlink:href="#linear-gradient"></linearGradient></defs><title>PP</title><g style="isolation: isolate;"><g id="Layer_2" data-name="Layer 2"><path d="M195.22,288.83,15.5,182.61c-5.72-3.21-10.63-8.49-5.05-11.94l180.37-104c2.71-1.68,6.82-2.78,9.57-1.18L389,175c5.72,3.32,6.75,12.6,1,15.93L218.91,288.66A23.9,23.9,0,0,1,195.22,288.83Z" fill="#2075af"></path><polygon points="225.91 175.82 131.92 231.66 106.29 216.26 200.32 160.02 225.91 175.82" fill="url(#linear-gradient)" style="mix-blend-mode: multiply;"></polygon><polygon points="233.38 264.71 202.33 284.25 144.36 248.16 195.76 211.94 233.38 264.71" fill="url(#linear-gradient-2)" style="mix-blend-mode: multiply;"></polygon><polygon points="187.43 168 93.44 223.84 67.81 208.45 161.84 152.2 187.43 168" fill="url(#linear-gradient-3)" style="mix-blend-mode: multiply;"></polygon><path d="M174.94,176.87l29.85,11.2s1.25.81.45,2.75c-.46,1.11-2.93,2.71-2.93,2.71l-25.77,15a14.86,14.86,0,0,1-4.44,1.2c-2.06.12-5.51-1.55-5.51-1.55l-24-13.9Z" fill="#34323d"></path><path d="M175.37,175.49l28.52,11.66s2,1.09,1.47,2.57a6.16,6.16,0,0,1-2.55,2.59L177,207.16a14.86,14.86,0,0,1-4.44,1.2c-2.06.12-5.51-1.55-5.51-1.55l-22.73-12.93Z" fill="#414cd8"></path><path d="M107.91,214.74a2.75,2.75,0,0,1-3.19-.77s-.56-.11-.56-2.56V97.7a7,7,0,0,1,2.49-5.14,82.23,82.23,0,0,1,8.7-5.32L241.7,14.3l1.42-.72a2.23,2.23,0,0,1,2.82.72,4.54,4.54,0,0,1,.62,2.07c.05,1.19,0,12.68,0,12.68v102.3a7.07,7.07,0,0,1-2.3,5.22Z" fill="#5f66fc"></path><path d="M106.48,197.51V99.4c0-3.26.45-5.08,3-6.44L242.73,15.77a1.76,1.76,0,0,1,2.81,1.42l-.33,100.88Z" fill="#68e1fd"></path><path d="M269.11,32.79V50a4.63,4.63,0,0,1-2.3,4L207.4,88.59a4.63,4.63,0,0,1-7-3.88l-.45-17a4.63,4.63,0,0,1,2.3-4.13l59.86-34.8A4.63,4.63,0,0,1,269.11,32.79Z" fill="#a2c609"></path><path d="M252.16,80.58V97.83a4.63,4.63,0,0,1-2.3,4l-59.41,34.55a4.63,4.63,0,0,1-7-3.88l-.45-17a4.63,4.63,0,0,1,2.3-4.13l59.86-34.8A4.63,4.63,0,0,1,252.16,80.58Z" fill="#ffb3a6"></path><path d="M93,152.88l41.49-22.78a5.08,5.08,0,0,0,2.63-4.45V49.6a5.08,5.08,0,0,0-7.62-4.4L88,69.16a5.08,5.08,0,0,0-2.54,4.4v74.87A5.08,5.08,0,0,0,93,152.88Z" fill="#ffc745"></path><polygon points="357.32 184.95 261.29 241.99 245.55 227.26 340.5 173.1 357.32 184.95" fill="url(#linear-gradient-4)" style="mix-blend-mode: multiply;"></polygon><path d="M334.14,146.91s1,42.42,15.47,43.44,15.47-43.44,15.47-43.44" fill="#68e1fd"></path><path d="M334.14,146.91s1,42.42,15.47,43.44,15.47-43.44,15.47-43.44" fill="#68e1fd"></path><ellipse cx="349.61" cy="146.91" rx="15.47" ry="8.03" fill="#311e69"></ellipse><path d="M345.4,152.38a202.45,202.45,0,0,0-14.49-48.93c-.56-1.27-2.42-.17-1.87,1.09A200.39,200.39,0,0,1,343.31,153C343.54,154.32,345.62,153.74,345.4,152.38Z" fill="#311e69"></path><path d="M354.24,155.07q-1.59-30.8-5.52-61.42c-.17-1.36-2.34-1.38-2.16,0q3.92,30.54,5.52,61.31C352.8,155,353.52,155,354.24,155.07Z" fill="#311e69"></path><path d="M326.12,99.45a11.48,11.48,0,0,0-7.63.61c-1.74.77-5.34,3-4.63,5.31s5.07,2,6.81,1.46a9.88,9.88,0,0,0,6-5.56,1.21,1.21,0,0,0,.08-.26A1,1,0,0,0,326.12,99.45Z" fill="#c3ea75"></path><path d="M330.19,96.93c-.45-2.79-.64-6-2.57-8.28-1.44-1.67-4-2.68-6.07-1.43s-1.63,4.24-.46,6c1.67,2.55,4.62,3.65,7,5.39a.92.92,0,0,0,1.45-.45A1.14,1.14,0,0,0,330.19,96.93Zm-3.3-5.3a8.36,8.36,0,0,0-1.8-2.15l-.05-.27A5.8,5.8,0,0,1,326.89,91.63Z" fill="#c3ea75"></path><path d="M335.81,92.48c-3.49-1.57-4.09,4.42-4.18,6.43a.93.93,0,0,0,.72,1,1.08,1.08,0,0,0,1.5,0c1.17-1.05,2.66-2.06,3-3.69C337.16,95,337.16,93.09,335.81,92.48Z" fill="#c3ea75"></path><path d="M349.73,79.7c-.74-2.4-3.18-4.59-5.8-3.44s-2.19,4.76-1.69,7.11,1.85,6.54,4.55,6.95a5,5,0,0,0,2.23-.62C350.12,86.64,350.71,82.87,349.73,79.7Zm-2.31,6.44v-.06a10.4,10.4,0,0,0,.08-1.18,7.06,7.06,0,0,1,.05,1.73C347.51,86.49,347.46,86.32,347.42,86.15Z" fill="#c3ea75"></path><path d="M357.91,88c-2.6.7-5.25,1.86-6.38,4.48a1.14,1.14,0,0,0,.19,1.21c.09,2.48,5.14,1.23,6.55,1,2.27-.44,5-1.57,4.92-4.33C363.09,87.27,360.07,87.38,357.91,88Zm3,3.13a1.25,1.25,0,0,0-.14-.5,3.46,3.46,0,0,0,.28-.45A.82.82,0,0,1,360.94,91.09Z" fill="#c3ea75"></path><path d="M344.31,90.94c-1-1.35-4.83-5.58-6.5-3.07a2.89,2.89,0,0,0,.62,3.5,7.91,7.91,0,0,0,4.09,1.8,1.12,1.12,0,0,0,1.27-.75A.93.93,0,0,0,344.31,90.94Zm-4.44-1.22h0l1.09.73-.18-.08A2.53,2.53,0,0,1,339.87,89.72Z" fill="#c3ea75"></path><polyline points="207.87 213.99 186.37 227.36 186.11 232.93 208.79 217.88" fill="#e27623"></polyline><path d="M208.13,204.91l11.59,32.53-1.62,1.1a10.52,10.52,0,0,1-1.32-.69c-.52-.34-14.46-34-14.46-34" fill="#e27623"></path><polyline points="186.43 199.97 181.57 220.02 184.93 259.19 186.41 260.02 188.26 258.66 186.91 219.62 191.16 199.63" fill="#e27623"></polyline><path d="M210.93,195.84s1,4.29-.31,6.81-5.72-3.2-5.72-3.2" fill="#ffb469"></path><polyline points="188.4 173.65 190.43 189.46 186.42 191.92 184.43 174.96" fill="#ca6b00"></polyline><polyline points="163.1 187.22 161.86 208.89 161.31 240.66 163.2 241.6 164.92 240.34 166.71 209.03 167.84 186.88" fill="#e27623"></polyline><path d="M166.12,189.69c-1.15.44-3.8-1.22-4.64-2.36-4.59-6.19-4-15.08,3.09-19.72,3.16-2.06,6.42-4.11,9.56-6.22,2.79-1.87,5.77-3.51,8.45-5.52a6.47,6.47,0,0,1,1.12-.72A4,4,0,0,1,188,156.3" fill="#ffb469"></path><path d="M165.8,189.44c-2,.07-3.32-2.48-4-4-1.92-4.14-2.82-12.21,1.86-15a.58.58,0,0,0,.31-.49l8.92-6,6.9-4.68c1.21-.82,2.34-1.73,3.55-2.55s2.38-1.76,3.83-1,1.92,2.51,2.27,4.1a25.8,25.8,0,0,1,.23,11.18,9.79,9.79,0,0,1-4.4,5.64L178.83,181l-11.89,8a2.65,2.65,0,0,1-.62.34A1.86,1.86,0,0,1,165.8,189.44Z" fill="#fcbd4c"></path><path d="M165.68,206.72l-.36.24a9.33,9.33,0,0,0-2.62,2.29c-1.71,2.5.3,5.06,2.29,6.58,5.37,4.12,13.28,7.24,20,5.09a60.78,60.78,0,0,0,16.2-8.57c4.09-2.88,9.22-6.37,10-11.76a7.7,7.7,0,0,0-2.51-6.46c-11.64-11.67-25.9,1.1-36.07,8Z" fill="#ffb469"></path><path d="M162,207.48a14.29,14.29,0,0,0,.11,4.56,12.85,12.85,0,0,0,3.4,4.19c1.32.92.07-6,.07-6" fill="#ffb469"></path><path d="M165.47,203.73l-.36.24a9.33,9.33,0,0,0-2.62,2.29c-1.71,2.5.3,5.06,2.29,6.58,5.37,4.12,13.28,7.24,20,5.09a60.78,60.78,0,0,0,16.2-8.57c4.09-2.88,9.22-6.37,10-11.76a7.7,7.7,0,0,0-2.51-6.46c-11.64-11.67-25.9,1.1-36.07,8Z" fill="#fcbd4c"></path><path d="M234.89,260.1a22.57,22.57,0,0,0-4.67-2.41c-1.71-.6-6.85-5.8-7.25-6.34s-1.39-3.12-2.26-3.23-2.71,1-2.71,1-2.88-2.56-5.13-1.52c0,0-2.07,1.3-1.58,7.43a1.44,1.44,0,0,0-.19.17,25,25,0,0,0,0,2.91,8.18,8.18,0,0,0,3.78,3c1.95.85,6.27,4,9,4.51a22.32,22.32,0,0,0,9.56-.94,3.14,3.14,0,0,0,1.92-2.7A2.74,2.74,0,0,0,234.89,260.1Z" fill="#e05e00"></path><path d="M218.54,248.89s-3.34-2.37-5.66-1.25-1.63,6.62-1.63,6.62.25,3.14,4.17,4.7,3.42,3.23,8.5,4.41,10.27-.43,11.13-2-2.34-2.66-2.58-2.84-4.89-2.6-6-3.89-3.08-3.53-3.8-4.65-1-2.15-2.24-2A3.68,3.68,0,0,0,218.54,248.89Z" fill="#ffc019"></path><path d="M228.32,255.95h0a12,12,0,0,0-2-.1q.15-.61.3-1.22a7,7,0,0,1-.52-.51l0,0a8.11,8.11,0,0,0-1.48,0l.37-.8a.33.33,0,0,0,0-.23.27.27,0,0,0-.21-.23.36.36,0,0,0-.19,0c-.57-.06-1.15-.12-1.72-.15q.23-.45.5-.89c.23-.37-.38-.67-.61-.3a11.45,11.45,0,0,0-.64,1.16,9.57,9.57,0,0,0-3,.4c-.42.13-.19.78.23.65a8.53,8.53,0,0,1,2.49-.37,11.68,11.68,0,0,0-.55,1.77c-.32.22.05.74.42.54a7.19,7.19,0,0,1,1.78-.67l-.38.93a4.38,4.38,0,0,0-.18.47.49.49,0,0,1-.05.13h0a.34.34,0,0,0,.27.63,11.27,11.27,0,0,1,2.3-.53q-.23.85-.48,1.69a.35.35,0,0,0,.53.35,24.2,24.2,0,0,1,3-2h.1a.34.34,0,0,0,.39-.3C228.73,256.24,228.52,256.1,228.32,255.95ZM222,254.73a10.82,10.82,0,0,1,.48-1.37c.52,0,1.05.07,1.58.13l-.33.74A8,8,0,0,0,222,254.73Zm1.69,1.51c.08-.26.15-.53.23-.72l.29-.68a7.37,7.37,0,0,1,1.6,0q-.13.54-.27,1.07A11.89,11.89,0,0,0,223.73,256.24Zm2.14,1.24.26-.93a10.93,10.93,0,0,1,1.16,0C226.81,256.84,226.33,257.15,225.87,257.49Z" fill="#e05e00"></path><path d="M223.84,263.65a22.57,22.57,0,0,0-4.67-2.41c-1.71-.6-6.85-5.8-7.25-6.34s-1.39-3.12-2.26-3.23-2.71,1-2.71,1-2.88-2.56-5.13-1.52c0,0-2.07,1.3-1.58,7.43a1.44,1.44,0,0,0-.19.17,25,25,0,0,0,0,2.91,8.18,8.18,0,0,0,3.78,3c1.95.85,6.27,4,9,4.51a22.32,22.32,0,0,0,9.56-.94,3.14,3.14,0,0,0,1.92-2.7A2.74,2.74,0,0,0,223.84,263.65Z" fill="#e05e00"></path><path d="M207.49,252.44s-3.34-2.37-5.66-1.25-1.63,6.62-1.63,6.62.25,3.14,4.17,4.7,3.42,3.23,8.5,4.41,10.27-.43,11.13-2-2.34-2.66-2.58-2.84-4.89-2.6-6-3.89-3.08-3.53-3.8-4.65-1-2.15-2.24-2A3.68,3.68,0,0,0,207.49,252.44Z" fill="#ffc019"></path><path d="M217.27,259.5h0a12,12,0,0,0-2-.1q.15-.61.3-1.22a7,7,0,0,1-.52-.51l0,0a8.11,8.11,0,0,0-1.48,0l.37-.8a.33.33,0,0,0,0-.23.27.27,0,0,0-.21-.23.36.36,0,0,0-.19,0c-.57-.06-1.15-.12-1.72-.15q.23-.45.5-.89c.23-.37-.38-.67-.61-.3a11.45,11.45,0,0,0-.64,1.16,9.57,9.57,0,0,0-3,.4c-.42.13-.19.78.23.65a8.53,8.53,0,0,1,2.49-.37,11.68,11.68,0,0,0-.55,1.77c-.32.22.05.74.42.54a7.19,7.19,0,0,1,1.78-.67l-.38.93a4.38,4.38,0,0,0-.18.47.49.49,0,0,1-.05.13h0a.34.34,0,0,0,.27.63,11.27,11.27,0,0,1,2.3-.53q-.23.85-.48,1.69a.35.35,0,0,0,.53.35,24.2,24.2,0,0,1,3-2h.1a.34.34,0,0,0,.39-.3C217.68,259.79,217.47,259.65,217.27,259.5ZM211,258.28a10.82,10.82,0,0,1,.48-1.37c.52,0,1.05.07,1.58.13l-.33.74A8,8,0,0,0,211,258.28Zm1.69,1.51c.08-.26.15-.53.23-.72l.29-.68a7.37,7.37,0,0,1,1.6,0q-.13.54-.27,1.07A11.89,11.89,0,0,0,212.68,259.8Zm2.14,1.24.26-.93a10.93,10.93,0,0,1,1.16,0C215.76,260.39,215.28,260.71,214.82,261Z" fill="#e05e00"></path><path d="M195.6,187c.86,1.5,23,19.44,26.65,25.44s.42,36.23.42,36.23-6.27,3.35-11.54.56c0,0-2.06-24.66-3.67-26.26s-20.59-14.86-22.67-17.68-1.18-15.48-1.18-15.48" fill="#68e1fd"></path><path d="M187.85,188.21c.86,1.5,20.64,23.08,24.32,29.09s.42,36.23.42,36.23-6.27,3.35-11.54.56c0,0-2.06-24.66-3.67-26.26s-20.88-14.67-22.67-17.68c-5.52-9.3-1.23-22.12-1.23-22.12" fill="#68e1fd"></path><path d="M196.31,175.11c.06-3.74.69-7.45.74-11.18.11-8.43-5.16-13.31-12.8-14a49.64,49.64,0,0,0-10.9,9.67c-3.15,4.11-1.76,20.16-1.76,20.16,1,4.39.85,7.81,1.23,10.2,6.07,5.35,16.18,1.73,22.78-3C196.56,183.07,196.24,179.09,196.31,175.11Z" fill="#8fdb5e"></path><path d="M182.5,142.51l-.77.06a.46.46,0,0,0,.07.92l.77-.06A.46.46,0,0,0,182.5,142.51Z" fill="#1c5028"></path><path d="M189.35,146a7.05,7.05,0,0,1-7.09,2c-.57-.16-.75.75-.18.9a8,8,0,0,0,8-2.26C190.45,146.15,189.76,145.55,189.35,146Z" fill="#1c5028"></path><path d="M192.2,139.81s0,11.4-2.85,12.15-6.09-.48-7.19-1.86-3.73-8.36-2.8-9.74S190.45,137.85,192.2,139.81Z" fill="#ffb92c"></path><path d="M181.4,148.53l0,5.62s1.82,1.28,6.7-.72l.48-3.29" fill="#ffb92c"></path><path d="M193.78,135.67a4.63,4.63,0,0,0-2-.17,4.49,4.49,0,0,0-1.73-2.37,4.7,4.7,0,0,0-4.91,0,3.55,3.55,0,0,0-.72.59,4.19,4.19,0,0,0-3.32-.86,3.53,3.53,0,0,0-2.84,2.55,3,3,0,0,0-.06,1.1,3.37,3.37,0,0,0-2.85,2.58,3.35,3.35,0,0,0,.63,2.9,3,3,0,0,0-.43,3.16A3.27,3.27,0,0,0,178.3,147a3.12,3.12,0,0,0,0,1.68c.69,1.3,2.36,1.75,3.89,2,0-.72,0-1.43,0-2.15a.77.77,0,0,1,0-.2,6.32,6.32,0,0,1-1.39-1.48c-.53-.74-1-1.83-.21-2.6a1.66,1.66,0,0,1,2.57.38,8.65,8.65,0,0,1,.48-1.1h0c.6-1.87,2.47-2.2,4.25-2.34,2.8,1.23,6.82,2,7.67-1.54A3.22,3.22,0,0,0,193.78,135.67Z" fill="#1c5028"></path><path d="M183.73,143.51s-.2,3.37.56,3.93,2.72.68,4.1.48,2.72-.15,3.18-.23c0,0-.72,3.55-1.78,4.58s-4.15.22-4.91-.18-2.07-3.52-2.07-3.52l-.23-4.91Z" fill="#1c5028"></path><path d="M217.42,181.07c.28,0,7.94,2.16,7.94,2.16l6.66,3.83a1.3,1.3,0,0,1-.93.62s.7.53.13,1a1,1,0,0,1-1.12.08,1.9,1.9,0,0,1-1.39.82c-.84,0-5.53-3-5.89-2.53s2.29,1.55,1.75,2.39-2.93-.39-3.74-1-4.94-3.91-4.94-3.91" fill="#ffb92c"></path><path d="M196,157.73s5.45,13.23,7.12,14.66,16.38,7.87,16.38,7.87.53,5.3-4.37,7.33c0,0-14.15-2-19.16-8.19" fill="#008404"></path><path d="M215.72,162.76s-21.52-1.37-22.89-.73-1.93,2.91-1.41,6.09,10.78,16,10.78,16" fill="#68e1fd"></path><path d="M222,169.66c-.06-.22-2.26-10.23-12.2-6-9,3.85-9.25,15.3-8.65,18.1.49,2.28,2.82,5.38,7.32,6.51" fill="#cc6c6d"></path><ellipse cx="212.63" cy="176.13" rx="12.89" ry="9.17" transform="translate(-33.51 301.23) rotate(-66.58)" fill="#f9847f"></ellipse><path d="M203,176.71l9.74,2.55,2.13-4.52L206,169.25A22.33,22.33,0,0,0,203,176.71Z" fill="#fff"></path><ellipse cx="213.64" cy="176.93" rx="2.51" ry="2.02" transform="translate(-40.88 287.23) rotate(-63.06)" fill="#f7d600"></ellipse><path d="M195.46,197.67V163.29a1.43,1.43,0,0,0-1.43-1.43h-1.4a1.43,1.43,0,0,0-1.43,1.43V197a2.66,2.66,0,0,0,1.44,2.34l0,0A1.89,1.89,0,0,0,195.46,197.67Z" fill="#68e1fd"></path><path d="M233.45,163.55l-4.37,4.37a1.67,1.67,0,0,0,2.36,2.36l4.37-4.37A1.67,1.67,0,0,0,233.45,163.55Z" fill="#f7d600"></path><path d="M242.39,175.6h-8.33a1.67,1.67,0,0,0,0,3.33h8.33A1.67,1.67,0,0,0,242.39,175.6Z" fill="#f7d600"></path><path d="M234.69,188l-4-3.75c-1.56-1.48-3.92.88-2.36,2.36l4,3.75C233.89,191.81,236.25,189.46,234.69,188Z" fill="#f7d600"></path><path d="M196.78,184.13a1.09,1.09,0,0,0,.3-1.49,3,3,0,0,0-1.41-1c-.65-.32-1.31-.6-2-.87.55-.83,1.14-2.13.54-3s-1.41-.06-1.77.56c0,.06-.05.12-.08.18a4.45,4.45,0,0,0-.67,1.27,9.17,9.17,0,0,1-1.52,2.56,48.15,48.15,0,0,0-5.89,1.59,1,1,0,0,0,.07,2,1,1,0,0,0,.91.65,1.06,1.06,0,0,0,1.24,1.17,19.14,19.14,0,0,1,4.09-.33l.93.31a3.32,3.32,0,0,0,2.23.09,3.76,3.76,0,0,0,1.91.34c1.06-.2,1.08-1,.74-1.74a1.49,1.49,0,0,0,.45-2.17Z" fill="#ffb92c"></path><path d="M171.88,161.84c-2.65,3.39-3.06,8-3.32,12.12-.26,4.34-1.37,9.51-.77,13.77.49,3.48,2.93,5.93,5.49,8.1,4.64,3.95,17.15-6.38,17.15-6.38l-1.12-8.76L177,185.39c1.08-.41,2.68-5.35,3.16-6.41a37.5,37.5,0,0,0,2.77-8.06c.95-4.88-1-12.38-7.58-11.14A5.56,5.56,0,0,0,171.88,161.84Z" fill="#008404"></path><path d="M213.21,219.16c-1.58-4.34-4.75-7.75-8.13-10.79-4.11-3.7-8.44-7.17-12.82-10.53-.51-.39-1,.48-.5.86,4.21,3.23,8.35,6.57,12.31,10.1s7.33,7.19,8.69,12.25c1.27,4.72.86,9.71.58,14.53q-.48,8-1.09,15.89c0,.64,1,.64,1,0q.66-8.66,1.17-17.34C214.7,229.14,214.94,223.94,213.21,219.16Z" fill="#1c5028"></path><ellipse cx="161.84" cy="100.23" rx="22.13" ry="13.34" transform="translate(27.05 234.65) rotate(-76.69)" fill="#fff"></ellipse></g></g></svg>