<svg xmlns="http://www.w3.org/2000/svg" xmlns:xlink="http://www.w3.org/1999/xlink" viewBox="0 0 400 300" width="406" height="306" class="illustration styles_illustrationTablet__1DWOa"><defs><linearGradient id="linear-gradient" x1="-171.1" y1="202.72" x2="-232.34" y2="235.72" gradientTransform="matrix(-1, 0, 0, 1, 77.68, 0)" gradientUnits="userSpaceOnUse"><stop offset="0" stop-color="#d4a397"></stop><stop offset="1" stop-color="#fff"></stop></linearGradient><pattern id="_10_dpi_10_" data-name="10 dpi 10%" width="28.8" height="28.8" patternTransform="translate(17.42 12.38) scale(0.3)" patternUnits="userSpaceOnUse" viewBox="0 0 28.8 28.8"><rect width="28.8" height="28.8" fill="none"></rect><circle cx="28.8" cy="28.8" r="0.72" fill="#231f20"></circle><circle cx="14.4" cy="28.8" r="0.72" fill="#231f20"></circle><circle cx="28.8" cy="14.4" r="0.72" fill="#231f20"></circle><circle cx="14.4" cy="14.4" r="0.72" fill="#231f20"></circle><circle cx="7.2" cy="21.6" r="0.72" fill="#231f20"></circle><circle cx="21.6" cy="21.6" r="0.72" fill="#231f20"></circle><circle cx="7.2" cy="7.2" r="0.72" fill="#231f20"></circle><circle cx="21.6" cy="7.2" r="0.72" fill="#231f20"></circle><circle cy="28.8" r="0.72" fill="#231f20"></circle><circle cy="14.4" r="0.72" fill="#231f20"></circle><circle cx="28.8" r="0.72" fill="#231f20"></circle><circle cx="14.4" r="0.72" fill="#231f20"></circle><circle r="0.72" fill="#231f20"></circle></pattern><linearGradient id="linear-gradient-2" x1="154.82" y1="159.05" x2="179.25" y2="186.38" gradientTransform="matrix(1, 0, 0, 1, 0, 0)" xlink:href="#linear-gradient"></linearGradient><linearGradient id="linear-gradient-3" x1="8.2" y1="186.16" x2="-56.2" y2="220.86" xlink:href="#linear-gradient"></linearGradient><linearGradient id="linear-gradient-4" x1="-107.87" y1="239.46" x2="-168.22" y2="271.97" xlink:href="#linear-gradient"></linearGradient></defs><title>121-130</title><g style="isolation: isolate;"><g id="Layer_2" data-name="Layer 2"><polyline points="253.04 94.29 237.58 97.7 240.19 119.37 255.04 114.56" fill="#124577"></polyline><path d="M197.16,285.69l-149.75-84a7.16,7.16,0,0,1-.27-12.32L192.31,99.38a7.16,7.16,0,0,1,7.36-.11l158.4,91.93a7.16,7.16,0,0,1,0,12.38l-141.25,82A19.84,19.84,0,0,1,197.16,285.69Z" fill="#fd7382"></path><path d="M317.83,225.62a6.77,6.77,0,0,1,.57-.42l-32.63-21.44-25.44,19.15L288,242.73C297.54,236.31,308.37,232.27,317.83,225.62Z" fill="url(#linear-gradient)" style="mix-blend-mode: multiply;"></path><path d="M267.15,98.86c.36-.11-2.83-4.5-3.09-4.91a79.58,79.58,0,0,1-4.2-7.55.54.54,0,0,0-.18-.2,13.59,13.59,0,0,0-.79-1.44.64.64,0,0,0-1.2.31,7.5,7.5,0,0,0,1,4.21c-.31.35-.66.72-1,1.11a.26.26,0,0,1,.1.29,1.94,1.94,0,0,1-.32.59,1.39,1.39,0,0,1-.29.34.31.31,0,0,1-.17.07,2,2,0,0,0,.41,1.7,2.56,2.56,0,0,0-.12,1.84l0,.08.1,0a18.76,18.76,0,0,1,2.28,1.58.29.29,0,0,1-.09.46,16.8,16.8,0,0,0,1.88.77.55.55,0,0,0,.44,0c.08.08.16.16.25.24a.65.65,0,0,0,1.08-.27.74.74,0,0,0,0-.23l.23.26a.74.74,0,0,0,.66.93.75.75,0,0,0,.83-.59.87.87,0,0,0,0-.29l.49.75a.18.18,0,0,0,.32-.05.14.14,0,0,0,0-.07,10,10,0,0,1,.68,1.34C269.85,105.07,267.24,99,267.15,98.86Zm-2.84-.14a.41.41,0,0,1-.4-.38.66.66,0,0,0,.55-.11l0,0a.17.17,0,0,0,.26,0s0,0,0,0A.41.41,0,0,1,264.31,98.73Z" fill="#fcbf81"></path><path d="M266.29,98.75a7,7,0,0,1-1.72-2,1.34,1.34,0,0,0-1.86-.52,7.86,7.86,0,0,1-.07-1.07c0-1.81-2.85-1.84-2.82,0a6.86,6.86,0,0,0,1.09,4,11.55,11.55,0,0,0,3.07,2.72,1.45,1.45,0,0,0,2.15-1.09l.13-.1A1.42,1.42,0,0,0,266.29,98.75Z" fill="#fcbf81"></path><path d="M261.95,99.53A5,5,0,0,1,259.78,94a.16.16,0,0,0,0-.14.17.17,0,0,0,0,0l-.95-1.68c-.14-.25-.3-.5-.42-.76-.2-.45-.45-2.19.81-1.46a6.64,6.64,0,0,1,1.14,1.59c.36.52.7,1.06,1,1.59.12.19.43,0,.31-.17q-.93-1.49-2-2.91c-.32-.44-.66-.9-1.26-.62a1.09,1.09,0,0,0-.66,1.2c-.22.42-.68.74-.76,1.23a2.41,2.41,0,0,0,.42,1.4l.16.27a.17.17,0,0,0-.06.08c-.2.54-.57,1.14-.16,1.66a2.63,2.63,0,0,0,.63.52l1.13.76a.16.16,0,0,0,.23-.05,5.72,5.72,0,0,0,2.39,3.34C262,100,262.14,99.66,261.95,99.53Zm-4.39-6.88a1.07,1.07,0,0,1,.07-1.18c.09-.12.18-.23.26-.34A13.4,13.4,0,0,0,259.42,94l0,.12a.16.16,0,0,0-.19,0C258.44,94.53,257.79,93.19,257.56,92.65Zm.4,2.67a.73.73,0,0,1-.38-.78,3.89,3.89,0,0,1,.25-.7c.37.49.89.89,1.49.59a4.93,4.93,0,0,0,0,1.81C258.87,95.93,258.4,95.64,258,95.32Z" fill="#34323d"></path><path d="M281.92,105.52s-8.23.39-10.37-1.58-5.23-8.18-5.23-8.18-5.67,3.64-6,5.74,5.93,12.24,8.68,12.92" fill="#68e1fd"></path><path d="M294.4,207s-7-3.09-8.63-3.22-4.47.45-2,3.52c0,0,7.32,4.79,8.28,4.94s3.31-.58,3.37-.33.28,2.1.28,2.1,6.12,2.33,6.38-1.76c0-.53-.88-8.13-.88-8.13" fill="#34323d"></path><path d="M302.38,189.06c-1.21-7.86-3.42-15.48-4.35-23.44-.58-5-1-10-1.61-15s-2.48-9.84-3.68-14.79a.54.54,0,0,1,.25-.61c-.06-.17-.11-.35-.16-.52-.62-.59-1.25-1.15-1.86-1.68l-8.55,5.76s.05,5.24.32,12.82c1,4.42,1.75,8.37,2.87,12.56a1.1,1.1,0,0,0-.26,1,355.19,355.19,0,0,1,6.07,40,1.16,1.16,0,0,0,.76,1l.24,2.07c7.44,2.87,9.07-2.13,9.07-2.13s.34-4.26.76-10.18C302.39,193.6,302.43,191.33,302.38,189.06Z" fill="#34323d"></path><path d="M239.42,108.84c.44.26.92.56,1.47.93a19.76,19.76,0,0,1-1.94-3c-.55-.92.82-1.68,1.49-1a58.06,58.06,0,0,0,6.11,5.75.93.93,0,0,1,.25.28l1.33,0c.4,0,.77,0,1.14,0l.32,0a.81.81,0,0,1,.75.23,2.59,2.59,0,0,1,.5.23.84.84,0,0,1,.14.12c.44,0,.88.08,1.31.14a1,1,0,0,1,.71,1.37l.18-.1c1-.61,1.77,1,.79,1.63a13.2,13.2,0,0,1-6.92,1.95.79.79,0,0,1-.78.1l-.42-.15a20,20,0,0,1-6.06-1.26,5.48,5.48,0,0,0-1.62-.37h0C238.54,113.39,239,111.12,239.42,108.84Z" fill="#fcbf81"></path><path d="M279.18,218.42,275,219.9a2.28,2.28,0,0,1-1.67,1.52.92.92,0,0,1-.58.32,10.83,10.83,0,0,1-4.91-.8c-2-.62-9.71-3.58-7.56,2,1.41,1,3,1.85,4.43,2.73.81.49,1.63,1,2.46,1.44a4.88,4.88,0,0,0,1.44.67c1.11.17,3.81-.67,3.88-.38s.32,2.42.32,2.42,7,2.68,7.34-2C280.24,227.15,279.18,218.42,279.18,218.42Z" fill="#34323d"></path><path d="M285,176.13c.86-13.9,1.34-27.88,4.27-41.55.13-3.55,2.43-1.28,2.27-2.69-1.25-11.43-17.91,2.17-17.91,2.17-.67.55-.76,4.06-.89,4.85q-1.13,6.59-1.93,13.22c-2.76,22.33-1.74,44.54-.61,66.94,3.54,3.62,5.86,4.7,11.56,2.36,1.14-14.66,2.22-29.32,3.16-44Z" fill="#34323d"></path><path d="M276.09,107c.16-.72,2-1.21,2.58-1.51,1.29-.7.54-1.92,1.8-2.68a43.37,43.37,0,0,1,5.72-2.79h.05c3.16,0,8.46-.18,8.78,4,.49,6.5-.08,13-.58,19.46-.2,2.6-.43,5.18-.66,7.72-.08.93-.2,8.43-.76,8.66-6.27,2.6-14.29,1.68-20.43-.75A208.6,208.6,0,0,1,276.09,107Z" fill="#68e1fd"></path><path d="M281.72,113.6a10.6,10.6,0,0,1-7.79,9.31c0,.43-.13,3.07-.18,3.5,5-1.2,8.7-7.49,9.22-12.81C283.05,112.79,281.8,112.8,281.72,113.6Z" fill="#34323d"></path><path d="M284.78,86.91c-.41.11-3.92,8.17-2.54,13.06s9.69-.14,11.78-3.87S292.64,84.88,284.78,86.91Z" fill="#fcbf81"></path><path d="M284.89,88a3.87,3.87,0,0,0,2.32,3.52c2.33.86,4.26,1.44,4.14,2.52s-4.21-.15-4.22,2.31a18.37,18.37,0,0,0,.67,4.91c.26,1.21,7.24-2.49,9.54-8.81s-3.46-8-3.74-8-.8-1.76-3.63-2.37-3.62.48-3.62.48a3.43,3.43,0,0,0-4.13.45c-2.61,2.07-1.94,5.85,1,7.38Z" fill="#34323d"></path><path d="M281.73,102.15s-14.38,8.24-19.56,8.25c-3.74,0-11.14-1.21-15-1.89-3.56,3-3.8,8.3-1.59,12.35,6.28,1,24.88,3.7,30.71.81,7.06-3.5,14.83-8.19,14.83-8.19S298.18,106.58,281.73,102.15Z" fill="#68e1fd"></path><path d="M240.89,109.77s-2.15-1.77-2.71-1.41a8.61,8.61,0,0,0-1.69,5.15c.18,1.78,1.09,3.29,5.51,3.24" fill="#fcbf81"></path><path d="M160.45,56l-17.78,92.52-2.57,13.36c-.36,1.89,2.53,2.69,2.89.8l17.78-92.52,2.57-13.36c.36-1.89-2.53-2.69-2.89-.8Z" fill="#42210b"></path><path d="M187.22,115.82l20.53,57.69c.64,1.81,3.54,1,2.89-.8L190.11,115c-.64-1.81-3.54-1-2.89.8Z" fill="#42210b"></path><path d="M130,41.42s-1-.44-.85,11.71.85,72.75.85,72.75l17.72-11.48-9.29-71.23S134.08,37.64,130,41.42Z" fill="#f7a269"></path><polygon points="133.4 45.5 148.17 150.44 200.49 119.67 188.18 20.27 133.4 45.5" fill="#ff8522"></polygon><path d="M134.3,51.89s2.55-6.18.61-8.73A4.25,4.25,0,0,0,130,41.42s32.5-17.33,56-28.17c0,0,8,2.77,2.66,10.86Z" fill="#ffba8b"></path><polygon points="147.74 150.44 152.66 152.26 205.57 120.64 205.57 118.09 200.29 118.09 147.74 148.56 147.74 150.44" fill="#363634"></polygon><path d="M155.55,148.72l-1.81,55.7c-.06,1.93,2.94,1.93,3,0l1.81-55.7c.06-1.93-2.94-1.93-3,0Z" fill="#42210b"></path><ellipse cx="168.06" cy="82.99" rx="19.49" ry="25.68" fill="#fff"></ellipse><ellipse cx="168.06" cy="82.99" rx="19.49" ry="25.68" fill="url(#_10_dpi_10_)"></ellipse><path d="M169.5,83l-5.67-25.07s9.81-4.13,17.26,6Z" fill="#fd7382"></path><path d="M169.5,83s15.36,13.1,15.75,12.1S193,78.55,181.1,63.91Z" fill="#8787d1"></path><line x1="154.85" y1="124.32" x2="193.63" y2="103.58" fill="none" stroke="#fff" stroke-miterlimit="10"></line><line x1="154.85" y1="129.06" x2="193.63" y2="108.33" fill="none" stroke="#fff" stroke-miterlimit="10"></line><line x1="154.85" y1="134.26" x2="193.63" y2="113.52" fill="none" stroke="#fff" stroke-miterlimit="10"></line><path d="M145.2,60.89,184,40.15c1.7-.91.19-3.5-1.51-2.59L143.69,58.3c-1.7.91-.19,3.5,1.51,2.59Z" fill="#fff"></path><path d="M148.39,198.07c0-.81-13.2-42.77-13.2-42.77l77.48,12.5-60.05,44.76Z" fill="url(#linear-gradient-2)" style="mix-blend-mode: multiply;"></path><path d="M132,216.3c-5.17,3-11.77,5.06-16.71,8.35L82.18,206.38l28.5-11.81,30.87,17.36C138.7,213.43,134.78,214.67,132,216.3Z" fill="url(#linear-gradient-3)" style="mix-blend-mode: multiply;"></path><path d="M78.68,163.9V201.8s36.43,2,36.43,0V163.9" fill="#68e1fd"></path><ellipse cx="96.9" cy="201.48" rx="18.22" ry="8.32" fill="#68e1fd"></ellipse><ellipse cx="96.9" cy="163.9" rx="18.22" ry="8.32" fill="#3129a3"></ellipse><path d="M85.54,170.37l.13.07c.7.24,1.41.46,2.13.65l-5-41.51a2.49,2.49,0,0,0-2.54.47l5.08,40.25Z" fill="#f78b72"></path><path d="M91.2,171.65l1.54-39a2.49,2.49,0,0,0-2.58.06L88.9,171.33A20.42,20.42,0,0,0,91.2,171.65Z" fill="#f78b72"></path><path d="M96.9,172.22l5-40.62L112,137l-4.1,34.12A31,31,0,0,1,96.9,172.22Z" fill="#fcb749"></path><path d="M244.41,269.29c-4.32,3-9.84,5.06-14,8.35l-31.32-22.36,27.44-7.73,25.81,17.36C250,266.43,246.72,267.67,244.41,269.29Z" fill="url(#linear-gradient-4)" style="mix-blend-mode: multiply;"></path><path d="M209,130.81a5.36,5.36,0,0,1,2.53,2.32l0,.08c1.59,1.3,1.84,3.67,3.52,4.84,0,0,1.59,1.16,1.6,1.21s-.15-2.17-.15-2.16v0c.55,1.5,1.08,3,1.56,4.53a.94.94,0,0,1-.24.11l.18.09.15.09a.51.51,0,0,0,.3.34,1.2,1.2,0,0,1-1.68,1.41l-5.1-2.49a14.23,14.23,0,0,1-2-.58c0-.53-.08-1.07-.13-1.6a4.48,4.48,0,0,1-.34-4.23l-.09-.09,0-.06a3.89,3.89,0,0,1-1.61-2.54C207.45,131.35,208.18,130.43,209,130.81Z" fill="#f7931e"></path><path d="M224.11,242.79v4.62s-9.75-3.62-11.64-2c-2.81,2.41,5.22,7.22,13.45,8.83,1.53.3,3.35.67,4.87.14,2.43-.85,1.41-4.53,1.41-6.42s.1-4,.14-6" fill="#8787d1"></path><path d="M209.86,249.21v4.62s-9.75-3.62-11.64-2c-2.81,2.41,5.22,7.22,13.45,8.83,1.53.3,3.35.67,4.87.14,2.43-.85,1.41-4.53,1.41-6.42s.1-4,.14-6" fill="#8787d1"></path><path d="M209.66,167.74s-9.23,62.21-8.23,76.66c0,0,2.41,9.63,23.28,6.42,0,0,1.81-7.22,1-19.47s-3-63.61-3-63.61Z" fill="#68e1fd"></path><path d="M214.78,241.26,217.92,167l14-1.3s4,19.27,2.81,28.5,1.4,21.47,2,27.89c.54,5.76.76,15.72-1.23,20.17C228.78,244.22,221.49,243.57,214.78,241.26Z" fill="#68e1fd"></path><path d="M215.48,135.63s-5.82,3.61-6.42,6.62c0,0,4.09,8.88,3.81,9.23-4.62,6,9.23-3.81,9.23-3.81S219.29,139.24,215.48,135.63Z" fill="#6de2fc"></path><path d="M202.24,137.84c-.48,4,4.65,9.62,6.81,10.7,3,1.48,4.12-10.84,17.14-10.78.84,0,5.07-1.8,7.29,3.75s0,21.46-1.48,24.24c-1.31,2.45-10,8.33-22.39,2l-.18-5.74s-7.32-.16-11.19-5.54c-3.61-5-5.76-12.56-5.42-16.25C195.74,139,199.36,136.89,202.24,137.84Z" fill="#6de2fc"></path><path d="M215.48,135.63s-5.82,3.61-6.42,6.62c0,0,4.09,8.88,3.81,9.23-4.62,6,9.23-3.81,9.23-3.81S219.29,139.24,215.48,135.63Z" fill="#00a99d"></path><polyline points="207.66 120.38 192.2 123.79 194.81 145.46 209.66 140.65" fill="#124577"></polyline><path d="M193,137a.46.46,0,0,0,.14.1q-.06,1.83-.1,3.66c0,.61.94.53,1-.08v-.16a.53.53,0,0,0,.63-.36l0-.12a.44.44,0,0,0,.46-.06.52.52,0,0,0,.34-.19.55.55,0,0,0,.41.21l0,.43c0,.53.88.59.94.05l0-.38c.14.4.88.4.92-.08l0-.53a.46.46,0,0,0,.16-.08v.09a.48.48,0,0,0,.94.05l.06-.24a.45.45,0,0,0,.63-.2,20.44,20.44,0,0,0,1.53-4,2.37,2.37,0,0,0-.84-2.67.43.43,0,0,0-.31-.12v0c.06-.65.13-1.31.21-2a11.1,11.1,0,0,0,.2-1.39,1.51,1.51,0,0,0-.06-1c-.11-.47-.37-.88-.92-.78-.85.16-1.19,1.42-1.4,2.11a19.57,19.57,0,0,0-.55,2.1,1.22,1.22,0,0,0-.38-.28,1.3,1.3,0,0,0-1.41.38l-.07.09a1.44,1.44,0,0,0-.36-.29,1.24,1.24,0,0,0-1.41.06,1.39,1.39,0,0,0-.5.78,1.23,1.23,0,0,0-1.65.88C191.23,134.32,192.08,136,193,137Zm3.91-4.86h-.29a.54.54,0,0,0-.06-.12.31.31,0,0,1,.26,0Z" fill="#f7931e"></path><path d="M219.29,123.09c0,.13-.81,8.27,1,10.07s6.66,1.05,7.86-.91,2.67-4.54,1.39-7.58S219.51,121.08,219.29,123.09Z" fill="#f7931e"></path><path d="M221.89,128.38a.81.81,0,0,1,.14-.87,3.93,3.93,0,0,1,2.2-1.37,1.65,1.65,0,0,1,1.93,1c.56,1.85-2.44,2.39-3.66,2.55a.82.82,0,0,1-.81-.81A.73.73,0,0,1,221.89,128.38Z" fill="#ffe8e6"></path><path d="M225.6,244.95a124.13,124.13,0,0,0,2.11-14.09,50.17,50.17,0,0,0,0-7,67.71,67.71,0,0,0-1-7.11,51.58,51.58,0,0,1-.57-12.77c.32-4.38,1-8.72,1.41-13.09a47.11,47.11,0,0,0-.48-14.76c-.14-.63.83-.9,1-.27,1.94,8.72.07,17.56-.75,26.29a52.45,52.45,0,0,0,.26,13.56c.37,2.2.81,4.38,1,6.59a46.26,46.26,0,0,1,.17,7.14,115.49,115.49,0,0,1-2.22,15.71C226.44,245.85,225.48,245.58,225.6,244.95Z" fill="#fff"></path><path d="M202.24,137.84c-.48,4,4.65,9.62,6.81,10.7,3,1.48,4.12-10.84,17.14-10.78.84,0,5.07-1.8,7.29,3.75s0,21.46-1.48,24.24c-1.31,2.45-10,8.33-22.39,2l-.18-5.74s-7.32-.16-11.19-5.54c-3.61-5-5.76-12.56-5.42-16.25C195.74,139,199.36,136.89,202.24,137.84Z" fill="#00a99d"></path><path d="M203.26,160.63A16,16,0,0,0,222,154.39c.26-.4.9,0,.64.37a16.78,16.78,0,0,1-19.62,6.58C202.62,161.19,202.81,160.47,203.26,160.63Z" fill="#fff"></path><path d="M210.57,147.16a11.92,11.92,0,0,1,2.88-4.07c1.42-1.29,3.17-2.12,4.65-3.33.3-.24.73.18.43.43-1.4,1.14-3,1.94-4.42,3.11a11.48,11.48,0,0,0-3,4.16C210.94,147.81,210.42,147.51,210.57,147.16Z" fill="#fff"></path><path d="M219.11,124.23l2.59,1.36s-2,7.63-2.61,9.63,1.81,4.82,9.63,5,7.43-11.64,5.62-16.05-7.22-6.42-11.64-5.22A4.55,4.55,0,0,0,219.11,124.23Z" fill="#b24d16"></path></g></g></svg>